<svg width="164" height="25" viewBox="0 0 164 25" fill="none" xmlns="http://www.w3.org/2000/svg">
<path d="M16.4545 8.25C16.2955 7.69697 16.072 7.20833 15.7841 6.78409C15.4962 6.35227 15.1439 5.98864 14.7273 5.69318C14.3182 5.39015 13.8485 5.15909 13.3182 5C12.7955 4.84091 12.2159 4.76136 11.5795 4.76136C10.3902 4.76136 9.3447 5.05682 8.44318 5.64773C7.54924 6.23864 6.85227 7.09848 6.35227 8.22727C5.85227 9.34848 5.60227 10.7197 5.60227 12.3409C5.60227 13.9621 5.84849 15.3409 6.34091 16.4773C6.83333 17.6136 7.5303 18.4811 8.43182 19.0795C9.33333 19.6705 10.3977 19.9659 11.625 19.9659C12.7386 19.9659 13.6894 19.7689 14.4773 19.375C15.2727 18.9735 15.8788 18.4091 16.2955 17.6818C16.7197 16.9545 16.9318 16.0947 16.9318 15.1023L17.9318 15.25H11.9318V11.5455H21.6705V14.4773C21.6705 16.5227 21.2386 18.2803 20.375 19.75C19.5114 21.2121 18.322 22.3409 16.8068 23.1364C15.2917 23.9242 13.5568 24.3182 11.6023 24.3182C9.42045 24.3182 7.50379 23.8371 5.85227 22.875C4.20076 21.9053 2.91288 20.5303 1.98864 18.75C1.07197 16.9621 0.613636 14.8409 0.613636 12.3864C0.613636 10.5 0.886364 8.81818 1.43182 7.34091C1.98485 5.85606 2.75758 4.59848 3.75 3.56818C4.74242 2.53788 5.89773 1.75379 7.21591 1.21591C8.53409 0.678029 9.96212 0.40909 11.5 0.40909C12.8182 0.40909 14.0455 0.602272 15.1818 0.988636C16.3182 1.36742 17.3258 1.9053 18.2045 2.60227C19.0909 3.29924 19.8144 4.12879 20.375 5.09091C20.9356 6.04545 21.2955 7.09848 21.4545 8.25H16.4545ZM33.1619 24.3409C31.3968 24.3409 29.8703 23.9659 28.5824 23.2159C27.3021 22.4583 26.3134 21.4053 25.6165 20.0568C24.9195 18.7008 24.571 17.1288 24.571 15.3409C24.571 13.5379 24.9195 11.9621 25.6165 10.6136C26.3134 9.25758 27.3021 8.20454 28.5824 7.45454C29.8703 6.69697 31.3968 6.31818 33.1619 6.31818C34.9271 6.31818 36.4498 6.69697 37.7301 7.45454C39.018 8.20454 40.0104 9.25758 40.7074 10.6136C41.4044 11.9621 41.7528 13.5379 41.7528 15.3409C41.7528 17.1288 41.4044 18.7008 40.7074 20.0568C40.0104 21.4053 39.018 22.4583 37.7301 23.2159C36.4498 23.9659 34.9271 24.3409 33.1619 24.3409ZM33.1847 20.5909C33.9877 20.5909 34.6581 20.3636 35.196 19.9091C35.7339 19.447 36.1392 18.8182 36.4119 18.0227C36.6922 17.2273 36.8324 16.322 36.8324 15.3068C36.8324 14.2917 36.6922 13.3864 36.4119 12.5909C36.1392 11.7955 35.7339 11.1667 35.196 10.7045C34.6581 10.2424 33.9877 10.0114 33.1847 10.0114C32.3741 10.0114 31.6922 10.2424 31.1392 10.7045C30.5938 11.1667 30.1809 11.7955 29.9006 12.5909C29.6278 13.3864 29.4915 14.2917 29.4915 15.3068C29.4915 16.322 29.6278 17.2273 29.9006 18.0227C30.1809 18.8182 30.5938 19.447 31.1392 19.9091C31.6922 20.3636 32.3741 20.5909 33.1847 20.5909ZM52.7869 24.3409C51.0218 24.3409 49.4953 23.9659 48.2074 23.2159C46.9271 22.4583 45.9384 21.4053 45.2415 20.0568C44.5445 18.7008 44.196 17.1288 44.196 15.3409C44.196 13.5379 44.5445 11.9621 45.2415 10.6136C45.9384 9.25758 46.9271 8.20454 48.2074 7.45454C49.4953 6.69697 51.0218 6.31818 52.7869 6.31818C54.5521 6.31818 56.0748 6.69697 57.3551 7.45454C58.643 8.20454 59.6354 9.25758 60.3324 10.6136C61.0294 11.9621 61.3778 13.5379 61.3778 15.3409C61.3778 17.1288 61.0294 18.7008 60.3324 20.0568C59.6354 21.4053 58.643 22.4583 57.3551 23.2159C56.0748 23.9659 54.5521 24.3409 52.7869 24.3409ZM52.8097 20.5909C53.6127 20.5909 54.2831 20.3636 54.821 19.9091C55.3589 19.447 55.7642 18.8182 56.0369 18.0227C56.3172 17.2273 56.4574 16.322 56.4574 15.3068C56.4574 14.2917 56.3172 13.3864 56.0369 12.5909C55.7642 11.7955 55.3589 11.1667 54.821 10.7045C54.2831 10.2424 53.6127 10.0114 52.8097 10.0114C51.9991 10.0114 51.3172 10.2424 50.7642 10.7045C50.2188 11.1667 49.8059 11.7955 49.5256 12.5909C49.2528 13.3864 49.1165 14.2917 49.1165 15.3068C49.1165 16.322 49.2528 17.2273 49.5256 18.0227C49.8059 18.8182 50.2188 19.447 50.7642 19.9091C51.3172 20.3636 51.9991 20.5909 52.8097 20.5909ZM70.9574 24.2841C69.6316 24.2841 68.4309 23.9432 67.3551 23.2614C66.2869 22.572 65.4384 21.5606 64.8097 20.2273C64.1884 18.8864 63.8778 17.2424 63.8778 15.2955C63.8778 13.2955 64.1998 11.6326 64.8438 10.3068C65.4877 8.97348 66.3438 7.97727 67.4119 7.31818C68.4877 6.65152 69.6657 6.31818 70.946 6.31818C71.9233 6.31818 72.7377 6.48485 73.3892 6.81818C74.0483 7.14394 74.5786 7.55303 74.9801 8.04545C75.3892 8.5303 75.6998 9.00758 75.9119 9.47727H76.0597V0.727272H80.8892V24H76.1165V21.2045H75.9119C75.6847 21.6894 75.3627 22.1705 74.946 22.6477C74.5369 23.1174 74.0028 23.5076 73.3438 23.8182C72.6922 24.1288 71.8968 24.2841 70.9574 24.2841ZM72.4915 20.4318C73.2718 20.4318 73.9309 20.2197 74.4688 19.7955C75.0142 19.3636 75.4309 18.7614 75.7188 17.9886C76.0142 17.2159 76.1619 16.3106 76.1619 15.2727C76.1619 14.2348 76.018 13.3333 75.7301 12.5682C75.4422 11.803 75.0256 11.2121 74.4801 10.7955C73.9347 10.3788 73.2718 10.1705 72.4915 10.1705C71.696 10.1705 71.0256 10.3864 70.4801 10.8182C69.9347 11.25 69.5218 11.8485 69.2415 12.6136C68.9612 13.3788 68.821 14.2652 68.821 15.2727C68.821 16.2879 68.9612 17.1856 69.2415 17.9659C69.5294 18.7386 69.9422 19.3447 70.4801 19.7841C71.0256 20.2159 71.696 20.4318 72.4915 20.4318ZM99.392 11.5227L94.9602 11.7955C94.8845 11.4167 94.7216 11.0758 94.4716 10.7727C94.2216 10.4621 93.892 10.2159 93.483 10.0341C93.0814 9.8447 92.6004 9.75 92.0398 9.75C91.2898 9.75 90.6572 9.90909 90.142 10.2273C89.6269 10.5379 89.3693 10.9545 89.3693 11.4773C89.3693 11.8939 89.536 12.2462 89.8693 12.5341C90.2027 12.822 90.7746 13.053 91.5852 13.2273L94.7443 13.8636C96.4413 14.2121 97.7064 14.7727 98.5398 15.5455C99.3731 16.3182 99.7898 17.3333 99.7898 18.5909C99.7898 19.7348 99.4527 20.7386 98.7784 21.6023C98.1117 22.4659 97.1951 23.1402 96.0284 23.625C94.8693 24.1023 93.5322 24.3409 92.017 24.3409C89.7064 24.3409 87.8655 23.8598 86.4943 22.8977C85.1307 21.928 84.3314 20.6098 84.0966 18.9432L88.858 18.6932C89.0019 19.3977 89.3504 19.9356 89.9034 20.3068C90.4564 20.6705 91.1648 20.8523 92.0284 20.8523C92.8769 20.8523 93.5587 20.6894 94.0739 20.3636C94.5966 20.0303 94.8617 19.6023 94.8693 19.0795C94.8617 18.6402 94.6761 18.2803 94.3125 18C93.9489 17.7121 93.3883 17.4924 92.6307 17.3409L89.608 16.7386C87.9034 16.3977 86.6345 15.8068 85.8011 14.9659C84.9754 14.125 84.5625 13.053 84.5625 11.75C84.5625 10.6288 84.8655 9.66288 85.4716 8.85227C86.0852 8.04167 86.9451 7.41667 88.0511 6.97727C89.1648 6.53788 90.4678 6.31818 91.9602 6.31818C94.1648 6.31818 95.8996 6.78409 97.1648 7.71591C98.4375 8.64773 99.1799 9.91667 99.392 11.5227ZM102.929 24V0.727272H107.849V10.3295H117.838V0.727272H122.747V24H117.838V14.3864H107.849V24H102.929ZM137.906 16.5682V6.54545H142.747V24H138.099V20.8295H137.918C137.524 21.8523 136.868 22.6742 135.952 23.2955C135.043 23.9167 133.933 24.2273 132.622 24.2273C131.455 24.2273 130.429 23.9621 129.543 23.4318C128.656 22.9015 127.963 22.1477 127.463 21.1705C126.971 20.1932 126.721 19.0227 126.713 17.6591V6.54545H131.554V16.7955C131.562 17.8258 131.838 18.6402 132.384 19.2386C132.929 19.8371 133.66 20.1364 134.577 20.1364C135.16 20.1364 135.705 20.0038 136.213 19.7386C136.721 19.4659 137.13 19.0644 137.44 18.5341C137.759 18.0038 137.914 17.3485 137.906 16.5682ZM146.71 24V0.727272H151.551V9.47727H151.699C151.911 9.00758 152.218 8.5303 152.619 8.04545C153.028 7.55303 153.559 7.14394 154.21 6.81818C154.869 6.48485 155.688 6.31818 156.665 6.31818C157.938 6.31818 159.112 6.65152 160.188 7.31818C161.263 7.97727 162.123 8.97348 162.767 10.3068C163.411 11.6326 163.733 13.2955 163.733 15.2955C163.733 17.2424 163.419 18.8864 162.79 20.2273C162.169 21.5606 161.32 22.572 160.244 23.2614C159.176 23.9432 157.979 24.2841 156.653 24.2841C155.714 24.2841 154.915 24.1288 154.256 23.8182C153.604 23.5076 153.07 23.1174 152.653 22.6477C152.237 22.1705 151.919 21.6894 151.699 21.2045H151.483V24H146.71ZM151.449 15.2727C151.449 16.3106 151.593 17.2159 151.881 17.9886C152.169 18.7614 152.585 19.3636 153.131 19.7955C153.676 20.2197 154.339 20.4318 155.119 20.4318C155.907 20.4318 156.574 20.2159 157.119 19.7841C157.665 19.3447 158.078 18.7386 158.358 17.9659C158.646 17.1856 158.79 16.2879 158.79 15.2727C158.79 14.2652 158.65 13.3788 158.369 12.6136C158.089 11.8485 157.676 11.25 157.131 10.8182C156.585 10.3864 155.915 10.1705 155.119 10.1705C154.331 10.1705 153.665 10.3788 153.119 10.7955C152.581 11.2121 152.169 11.803 151.881 12.5682C151.593 13.3333 151.449 14.2348 151.449 15.2727Z" fill="#93B778"/>
</svg>
