<svg width="27" height="27" viewBox="0 0 27 27" fill="none" xmlns="http://www.w3.org/2000/svg">
<path d="M18.1481 20.1356C15.8875 21.8903 13.0433 22.7175 10.1943 22.449C7.34526 22.1804 4.70567 20.8363 2.81279 18.6901C0.919918 16.544 -0.0839605 13.7571 0.00550458 10.8969C0.0949697 8.03666 1.27105 5.31802 3.29436 3.29436C5.31802 1.27105 8.03666 0.0949697 10.8969 0.00550458C13.7571 -0.0839605 16.544 0.919918 18.6901 2.81279C20.8363 4.70567 22.1804 7.34526 22.449 10.1943C22.7175 13.0433 21.8903 15.8875 20.1356 18.1481L25.8356 23.8481C26.0207 24.02 26.156 24.2386 26.2273 24.481C26.2986 24.7233 26.3032 24.9804 26.2406 25.2251C26.178 25.4698 26.0506 25.6932 25.8718 25.8716C25.6929 26.0499 25.4693 26.1768 25.2244 26.2387C24.9799 26.3014 24.7231 26.297 24.4809 26.2261C24.2387 26.1551 24.0201 26.0203 23.8481 25.8356L18.1481 20.1356ZM19.6856 11.2481C19.7023 10.1299 19.4964 9.01947 19.08 7.98152C18.6636 6.94356 18.045 5.99877 17.2601 5.20209C16.4752 4.40541 15.5398 3.77276 14.5081 3.34093C13.4765 2.9091 12.3693 2.68672 11.2509 2.68672C10.1326 2.68672 9.02535 2.9091 7.99372 3.34093C6.96209 3.77276 6.02662 4.40541 5.24173 5.20209C4.45685 5.99877 3.83821 6.94356 3.42181 7.98152C3.00541 9.01947 2.79956 10.1299 2.81623 11.2481C2.84926 13.4633 3.75244 15.5767 5.33066 17.1315C6.90888 18.6864 9.03544 19.558 11.2509 19.558C13.4664 19.558 15.593 18.6864 17.1712 17.1315C18.7494 15.5767 19.6526 13.4633 19.6856 11.2481Z" fill="#474747"/>
</svg>
